<?xml version="1.0" encoding="utf-8"?>
<!-- Generator: Adobe Illustrator 18.1.1, SVG Export Plug-In . SVG Version: 6.00 Build 0)  -->
<svg version="1.1" id="Layer_1" xmlns="http://www.w3.org/2000/svg" xmlns:xlink="http://www.w3.org/1999/xlink" x="0px" y="0px"
	 viewBox="0 0 382.799 529.455" enable-background="new 0 0 382.799 529.455" xml:space="preserve">
<g>
	<defs>
		<path id="SVGID_1_" d="M382.361,338.274c0,105.599-85.595,191.181-191.181,191.181C85.595,529.455,0,443.873,0,338.274
			C0,193.747,114.157,141.009,191.181,0.336C268.514,141.009,382.361,193.747,382.361,338.274z"/>
	</defs>
	<clipPath id="SVGID_2_">
		<use xlink:href="#SVGID_1_"  overflow="visible"/>
	</clipPath>
	<rect x="-2.201" clip-path="url(#SVGID_2_)" fill-rule="evenodd" clip-rule="evenodd" fill="#FFFFFF" width="385" height="529"/>
	<path opacity="0.05" clip-path="url(#SVGID_2_)" fill="#444444" d="M564.638,423.743L82.169-58.726L58.596-35.152l482.47,482.47
		L564.638,423.743z M517.492,470.889L37.498-9.103L13.925,14.469L493.92,494.464L517.492,470.889z M470.346,518.035L1.905,49.595
		l-23.574,23.572l468.441,468.441L470.346,518.035z M409.435,551.419L-26.262,115.721l-23.574,23.571L385.861,574.99
		L409.435,551.419z M334.794,571.07L-42.869,193.405l-23.574,23.572L311.22,594.641L334.794,571.07z M248.049,575.285
		L-44.615,282.619l-23.574,23.572l292.665,292.666L248.049,575.285z"/>
</g>
<g display="none">
	<defs>
		<path id="SVGID_3_" d="M382.361,338.274c0,105.599-85.595,191.181-191.181,191.181C85.595,529.455,0,443.873,0,338.274
			C0,193.747,114.157,141.009,191.181,0.336C268.514,141.009,382.361,193.747,382.361,338.274z"/>
	</defs>
	<clipPath id="SVGID_4_" display="inline">
		<use xlink:href="#SVGID_3_"  overflow="visible"/>
	</clipPath>
	
		<rect x="-2.201" display="inline" clip-path="url(#SVGID_4_)" fill-rule="evenodd" clip-rule="evenodd" fill="#4FC7E2" width="385" height="529"/>
	<path display="inline" opacity="0.1" clip-path="url(#SVGID_4_)" fill="#FFFFFF" d="M564.638,423.743L82.169-58.726L58.596-35.152
		l482.47,482.47L564.638,423.743z M517.492,470.889L37.498-9.103L13.925,14.469L493.92,494.464L517.492,470.889z M470.346,518.035
		L1.905,49.595l-23.574,23.572l468.441,468.441L470.346,518.035z M409.435,551.419L-26.262,115.721l-23.574,23.571L385.861,574.99
		L409.435,551.419z M334.794,571.07L-42.869,193.405l-23.574,23.572L311.22,594.641L334.794,571.07z M248.049,575.285
		L-44.615,282.619l-23.574,23.572l292.665,292.666L248.049,575.285z"/>
</g>
</svg>
