<?xml version="1.0" encoding="utf-8"?>
<!-- Generator: Adobe Illustrator 16.0.3, SVG Export Plug-In . SVG Version: 6.00 Build 0)  -->
<!DOCTYPE svg PUBLIC "-//W3C//DTD SVG 1.1//EN" "http://www.w3.org/Graphics/SVG/1.1/DTD/svg11.dtd">
<svg version="1.1" id="Layer_1" xmlns="http://www.w3.org/2000/svg" xmlns:xlink="http://www.w3.org/1999/xlink" x="0px" y="0px"
	 width="382.799px" height="529.455px" viewBox="0 0 382.799 529.455" enable-background="new 0 0 382.799 529.455"
	 xml:space="preserve">
<g>
	<defs>
		<path id="SVGID_1_" d="M382.361,338.274c0,105.599-85.595,191.181-191.181,191.181S0,443.873,0,338.274
			C0,193.747,114.157,141.009,191.181,0.336C268.514,141.009,382.361,193.747,382.361,338.274z"/>
	</defs>
	<clipPath id="SVGID_2_">
		<use xlink:href="#SVGID_1_"  overflow="visible"/>
	</clipPath>
	<rect x="-2.201" clip-path="url(#SVGID_2_)" fill-rule="evenodd" clip-rule="evenodd" fill="#4FC7E2" width="385" height="529"/>
	<path opacity="0.1" clip-path="url(#SVGID_2_)" fill="#FFFFFF" d="M235.7,61.647L180.254,6.203l14.142-14.142l55.445,55.445
		L235.7,61.647z M384.923,239.155L170.41,24.643l-14.142,14.142L370.78,253.298L384.923,239.155z M401.53,312.331L146.739,57.54
		l-14.142,14.142l254.792,254.791L401.53,312.331z M395.188,362.557L122.753,90.122l-14.142,14.143l272.434,272.435L395.188,362.557
		z M382.744,406.682L95.121,119.058L80.979,133.2l287.624,287.625L382.744,406.682z M362.718,443.224L73.272,153.778L59.129,167.92
		l289.447,289.447L362.718,443.224z M334.434,471.508L46.473,183.548L32.33,197.689l287.962,287.962L334.434,471.508z
		 M306.149,499.792L25.119,218.763l-14.143,14.142l281.03,281.03L306.149,499.792z M269.607,519.82L8.221,258.433l-14.143,14.141
		l261.386,261.387L269.607,519.82z M224.828,531.609L-1.742,305.038l-14.143,14.142l226.57,226.57L224.828,531.609z
		 M171.788,535.138L-3.789,359.56l-14.143,14.142l175.578,175.578L171.788,535.138z"/>
</g>
</svg>
